<mxfile host="app.diagrams.net" modified="2023-12-26T19:43:25.248Z" agent="Mozilla/5.0 (Windows NT 10.0; Win64; x64) AppleWebKit/537.36 (KHTML, like Gecko) Chrome/120.0.0.0 Safari/537.36" etag="VM95Spd3w8LXtXvHXWIi" version="22.1.11" type="device">
  <diagram name="Страница — 1" id="E_9PrvvV-NaYvDECT35r">
    <mxGraphModel dx="870" dy="555" grid="1" gridSize="10" guides="1" tooltips="1" connect="1" arrows="1" fold="1" page="1" pageScale="1" pageWidth="827" pageHeight="1169" math="0" shadow="0">
      <root>
        <mxCell id="0" />
        <mxCell id="1" parent="0" />
        <mxCell id="KGMCus8UHllUR0XV-cv--6" style="edgeStyle=orthogonalEdgeStyle;rounded=0;orthogonalLoop=1;jettySize=auto;html=1;exitX=0.25;exitY=1;exitDx=0;exitDy=0;entryX=0;entryY=0.5;entryDx=0;entryDy=0;" edge="1" parent="1" source="KGMCus8UHllUR0XV-cv--1" target="KGMCus8UHllUR0XV-cv--2">
          <mxGeometry relative="1" as="geometry" />
        </mxCell>
        <mxCell id="KGMCus8UHllUR0XV-cv--10" style="edgeStyle=orthogonalEdgeStyle;rounded=0;orthogonalLoop=1;jettySize=auto;html=1;exitX=0.25;exitY=1;exitDx=0;exitDy=0;entryX=0;entryY=0.5;entryDx=0;entryDy=0;" edge="1" parent="1" source="KGMCus8UHllUR0XV-cv--1" target="KGMCus8UHllUR0XV-cv--9">
          <mxGeometry relative="1" as="geometry" />
        </mxCell>
        <mxCell id="KGMCus8UHllUR0XV-cv--12" style="edgeStyle=orthogonalEdgeStyle;rounded=0;orthogonalLoop=1;jettySize=auto;html=1;exitX=0.25;exitY=1;exitDx=0;exitDy=0;entryX=0;entryY=0.5;entryDx=0;entryDy=0;" edge="1" parent="1" source="KGMCus8UHllUR0XV-cv--1" target="KGMCus8UHllUR0XV-cv--11">
          <mxGeometry relative="1" as="geometry" />
        </mxCell>
        <mxCell id="KGMCus8UHllUR0XV-cv--1" value="Cardinal" style="rounded=0;whiteSpace=wrap;html=1;" vertex="1" parent="1">
          <mxGeometry x="40" y="80" width="120" height="40" as="geometry" />
        </mxCell>
        <mxCell id="KGMCus8UHllUR0XV-cv--5" style="edgeStyle=orthogonalEdgeStyle;rounded=0;orthogonalLoop=1;jettySize=auto;html=1;exitX=0.25;exitY=1;exitDx=0;exitDy=0;" edge="1" parent="1" source="KGMCus8UHllUR0XV-cv--2" target="KGMCus8UHllUR0XV-cv--4">
          <mxGeometry relative="1" as="geometry">
            <Array as="points">
              <mxPoint x="150" y="340" />
            </Array>
          </mxGeometry>
        </mxCell>
        <mxCell id="KGMCus8UHllUR0XV-cv--7" style="edgeStyle=orthogonalEdgeStyle;rounded=0;orthogonalLoop=1;jettySize=auto;html=1;exitX=0.25;exitY=1;exitDx=0;exitDy=0;entryX=0;entryY=0.5;entryDx=0;entryDy=0;" edge="1" parent="1" source="KGMCus8UHllUR0XV-cv--2" target="KGMCus8UHllUR0XV-cv--3">
          <mxGeometry relative="1" as="geometry" />
        </mxCell>
        <mxCell id="KGMCus8UHllUR0XV-cv--14" style="edgeStyle=orthogonalEdgeStyle;rounded=0;orthogonalLoop=1;jettySize=auto;html=1;exitX=0.25;exitY=1;exitDx=0;exitDy=0;entryX=0;entryY=0.5;entryDx=0;entryDy=0;" edge="1" parent="1" source="KGMCus8UHllUR0XV-cv--2" target="KGMCus8UHllUR0XV-cv--13">
          <mxGeometry relative="1" as="geometry" />
        </mxCell>
        <mxCell id="KGMCus8UHllUR0XV-cv--2" value="Core" style="rounded=0;whiteSpace=wrap;html=1;" vertex="1" parent="1">
          <mxGeometry x="120" y="160" width="120" height="40" as="geometry" />
        </mxCell>
        <mxCell id="KGMCus8UHllUR0XV-cv--3" value="Data" style="rounded=0;whiteSpace=wrap;html=1;" vertex="1" parent="1">
          <mxGeometry x="200" y="400" width="120" height="40" as="geometry" />
        </mxCell>
        <mxCell id="KGMCus8UHllUR0XV-cv--4" value="Indicators" style="rounded=0;whiteSpace=wrap;html=1;" vertex="1" parent="1">
          <mxGeometry x="200" y="320" width="120" height="40" as="geometry" />
        </mxCell>
        <mxCell id="KGMCus8UHllUR0XV-cv--9" value="Neural" style="rounded=0;whiteSpace=wrap;html=1;" vertex="1" parent="1">
          <mxGeometry x="120" y="480" width="120" height="40" as="geometry" />
        </mxCell>
        <mxCell id="KGMCus8UHllUR0XV-cv--11" value="Market" style="rounded=0;whiteSpace=wrap;html=1;" vertex="1" parent="1">
          <mxGeometry x="120" y="560" width="120" height="40" as="geometry" />
        </mxCell>
        <mxCell id="KGMCus8UHllUR0XV-cv--13" value="Analyze" style="rounded=0;whiteSpace=wrap;html=1;" vertex="1" parent="1">
          <mxGeometry x="200" y="240" width="120" height="40" as="geometry" />
        </mxCell>
      </root>
    </mxGraphModel>
  </diagram>
</mxfile>
